<?xml version="1.0" encoding="UTF-8"?> <svg xmlns="http://www.w3.org/2000/svg" xmlns:xlink="http://www.w3.org/1999/xlink" version="1.1" id="Layer_1" x="0px" y="0px" viewBox="0 0 25 25" xml:space="preserve"> <path fill="#697641" d="M13.8423,12.5L24.2295,2.1128c0.3711-0.3711,0.3711-0.9717,0-1.3428c-0.3691-0.3701-0.9727-0.3701-1.3418,0 L12.5,11.1577L2.1128,0.77c-0.3711-0.3701-0.9717-0.3701-1.3428,0c-0.3706,0.3711-0.3706,0.9717,0,1.3428L11.1577,12.5L0.77,22.8877 c-0.3706,0.3701-0.3706,0.9717,0,1.3418c0.1855,0.1855,0.4282,0.2783,0.6714,0.2783s0.4858-0.0928,0.6714-0.2783L12.5,13.8423 l10.3877,10.3872c0.1846,0.1855,0.4277,0.2783,0.6709,0.2783s0.4863-0.0928,0.6709-0.2783c0.3711-0.3701,0.3711-0.9717,0-1.3418 L13.8423,12.5z"></path> </svg> 