<svg xmlns="http://www.w3.org/2000/svg" width="441" height="142" fill="none"><g fill="#4783B5" clip-path="url(#a)"><path d="M.229 70.37q0-21.266 5.312-36.916c3.552-10.443 8.583-18.52 15.083-24.23 6.5-5.718 14.084-8.582 22.75-8.582 2.625 0 4.657.104 6.104.312 1.443.198 3.344.292 5.709.292 2.885 0 4.885-.031 6-.104q1.664-.102 4.437-.5v45.687H63.25q0-8.85-1.875-17.812c-1.24-5.97-3.041-10.927-5.416-14.875q-3.546-5.916-8.646-5.917-7.5 0-12.625 8.667-5.108 8.67-7.771 22.958-2.648 14.273-2.646 31.396 0 11.837.875 23.166.891 11.313 3.063 20.375 2.165 9.046 6.291 14.459c2.76 3.614 6.313 5.416 10.646 5.416q8.664 0 13.188-7.187c3.01-4.792 4.843-11.156 5.5-19.104q1-11.916-1.375-26.292h6.895c0 4.6-.072 9.594-.208 14.98a142 142 0 0 1-1.27 15.958q-1.087 7.875-3.75 14.375c-1.766 4.333-4.287 7.781-7.563 10.333-3.281 2.552-7.48 3.833-12.604 3.833q-13.4 0-23.25-8.562c-6.558-5.709-11.615-13.844-15.167-24.417Q.228 92.229.229 70.371Zm68.144-22.666h31.896c-1.709 3.156-2.865 6.344-3.459 9.563q-.874 4.837-.874 14.666v7.688c0 3.416.03 7.161.104 11.229.067 4.073.104 7.875.104 11.417v8.083q0 10.625 1.083 15.562c.719 3.282 2.719 4.917 6 4.917 2.761 0 4.834-1.344 6.209-4.042 1.375-2.692 2.322-6.072 2.854-10.145q.788-6.1.875-12.396.102-6.312.104-10.834V47.704h27.583q-2.562 4.734-3.25 9.563c-.458 3.224-.823 8.114-1.083 14.666q-.002 3.547-.104 7c-.073 2.292-.104 5.146-.104 8.563v23.437q0 3.36.875 7.5c.593 2.75 2.406 4.782 5.437 6.084q-7.109 2.962-11.333 7.291-4.234 4.336-7.188 9.25-3.751 0-7.104-2.75-3.338-2.765-3.729-10.437-1.96 7.085-6.5 10.146-4.525 3.04-13 3.041c-4.198 0-7.906-.885-11.125-2.646q-4.814-2.665-7.48-9.354c-1.78-4.468-2.666-10.708-2.666-18.708 0-2.635.031-6.943.104-12.917q.103-8.953.104-25.5-.001-9.829-.791-14.666c-.532-3.22-1.709-6.407-3.542-9.563"/><path d="M140.841 47.704h27.375v20.688q1.955-9.063 6.479-15.563 4.539-6.5 13.209-6.5 6.499 0 10.833 3.938c2.886 2.625 5.052 6.01 6.5 10.145a38.9 38.9 0 0 1 2.167 12.896q0 5.922-1.688 11.625-1.671 5.713-5.312 9.354-3.627 3.648-9.354 3.646-4.71.002-7.584-4.333c-1.906-2.885-2.854-6.365-2.854-10.438 0-3.276.781-6.526 2.354-9.75a136 136 0 0 1 4.938-9.166c1.443-2.485 1.864-5.073 1.271-7.771q-.876-4.04-3.625-4.042-3.937.001-7.188 5.917c-2.167 3.932-4.01 8.917-5.521 14.958q-2.271 9.065-3.458 18.917c-.781 6.557-1.167 12.396-1.167 17.521v5.708q0 9.86.875 14.688c.594 3.208 1.75 6.39 3.459 9.541h-31.709q2.75-4.728 3.438-9.541.687-4.828.687-14.688V71.746q0-9.85-.687-14.584-.688-4.724-3.438-9.458"/><path d="M207.198 47.704h27.583v67.75q-.002 9.86.771 14.688.789 4.813 3.562 9.541h-31.916q2.767-4.728 3.541-9.541.79-4.828.792-14.688V71.746q-.001-9.85-.792-14.584-.774-4.724-3.541-9.458m-.584-19.083q0-5.124 4.625-8.771c3.084-2.427 7.052-3.646 11.917-3.646 4.984 0 9.021 1.219 12.104 3.646q4.625 3.647 4.625 8.77 0 5.11-4.625 8.75-4.626 3.648-12.104 3.647c-4.865 0-8.833-1.214-11.917-3.646q-4.625-3.64-4.625-8.75M241.08 93.6c0-8.667 1.339-16.573 4.021-23.73q4.04-10.726 11.729-17.124 7.686-6.416 18.708-6.417 11.227 0 19 6.417 7.791 6.398 11.73 17.125c2.625 7.156 3.937 15.062 3.937 23.729s-1.349 16.615-4.042 23.833c-2.698 7.224-6.604 12.969-11.729 17.229q-7.67 6.397-18.708 6.396-11.024.001-18.813-6.396-7.773-6.392-11.812-17.229c-2.682-7.218-4.021-15.166-4.021-23.833m34.458-42.73c-2.765 0-5 1.975-6.708 5.917-1.698 3.933-2.875 9.115-3.542 15.542q-.983 9.647-.77 21.083.186 11.421 1.27 21.271 1.078 9.838 3.438 15.854 2.375 6 6.5 6 4.141 0 6.604-6c1.635-4.01 2.854-9.296 3.646-15.854.792-6.567 1.114-13.656.979-21.27q0-11.437-1.187-21.084-1.171-9.642-3.646-15.542-2.46-5.914-6.584-5.916Zm37.798 19.876c0-6.292 1.115-11.209 3.354-14.75q3.351-5.328 8.375-7.5 5.016-2.166 9.938-2.167 5.704 0 8.166.313 2.476.296 4.834.687 2.374.375 7.687.375 5.892 0 10.229-1.562 1.39 3.937.5 8.875-.897 4.92-3.958 8.562-3.046 3.625-8.146 3.625-4.338.001-6.604-2.458c-1.516-1.636-2.729-3.542-3.646-5.709q-1.375-3.248-3.25-5.708c-1.25-1.635-3.187-2.458-5.812-2.458q-4.127.002-5.417 3.646-1.272 3.626-1.271 6.791 0 5.5 4.125 9.75c2.761 2.823 6.177 5.542 10.25 8.167a158 158 0 0 1 12.104 8.667c4.011 3.156 7.396 6.833 10.146 11.041 2.761 4.198 4.146 9.313 4.146 15.354q-.001 8.86-4.042 14.771-4.046 5.898-10.646 8.959-6.587 3.04-14.666 3.041-5.898 0-10.146-.687-4.234-.688-7.375-.688a35 35 0 0 0-3.458.188c-1.24.135-2.25.531-3.042 1.187v-38.791h2.354q-.001 4.126 1.271 9.541c.859 3.615 2.208 7.125 4.042 10.542q2.765 5.127 7.187 8.479c2.958 2.224 6.469 3.333 10.542 3.333 4.594 0 7.583-1.312 8.958-3.937 1.386-2.625 2.083-5.052 2.083-7.292 0-3.666-1.312-6.843-3.937-9.541q-3.939-4.041-9.667-7.98a248 248 0 0 1-11.521-8.458 42 42 0 0 1-9.75-10.833q-3.937-6.313-3.937-15.375m79.167 70.312q-8.859 0-15.063-9.062-6.209-9.063-6.208-26.188c0-8.01 1.115-14.61 3.354-19.791q3.353-7.767 8.667-11.605c3.541-2.567 7.281-3.854 11.229-3.854 4.068 0 7.38 1.219 9.937 3.646q3.85 3.647 5.021 8.77.392-1.976 1.667-5.624a319 319 0 0 0 2.667-7.875c.916-2.818 1.468-5.505 1.666-8.063q.312-3.85-1.166-6.312c-.99-1.636-2.99-2.458-6-2.458q-3.563.001-5.438 2.166c-1.239 1.448-2.417 3.157-3.542 5.125a19.8 19.8 0 0 1-4.125 5.104c-1.64 1.448-4.036 2.167-7.187 2.167q-5.313 0-8.563-3.625c-2.166-2.427-3.552-5.281-4.145-8.562q-.876-4.938.5-8.875c2.885 1.041 6.5 1.562 10.833 1.562 2.75 0 4.906-.062 6.479-.187 1.583-.125 2.964-.282 4.146-.48q1.767-.312 4.229-.5c1.651-.135 3.984-.208 7-.208 7.344 0 12.886 1.448 16.625 4.333q5.625 4.335 7.688 11.521c1.385 4.792 2.01 10.052 1.875 15.771a214 214 0 0 1-1.084 17.23q-.875 8.671-.875 15.937-.002 3.17.479 6.521.5 3.337 2.063 5.604 1.58 2.25 4.542 2.25c1.052 3.948.27 7.531-2.355 10.75-2.625 3.208-6.177 4.812-10.645 4.812-4.865 0-8.511-1.218-10.938-3.646q-3.627-3.642-5.792-9.541-1.981 5.71-5.729 9.458-3.734 3.728-11.812 3.729m2.166-36.229q0 9.65 2.063 16.354 2.078 6.688 5.812 6.688c2.5 0 4.136-2.229 4.917-6.688q1.188-6.704 1.188-16.354c0-7.36-.302-12.646-.896-15.854-.584-3.219-2.323-4.833-5.209-4.833-2.89 0-4.927 1.614-6.104 4.833q-1.772 4.814-1.771 15.854"/></g><defs><clipPath id="a"><path fill="#fff" d="M0 0h441v142H0z"/></clipPath></defs></svg>